<?xml version="1.0" encoding="UTF-8" standalone="no"?>
<!DOCTYPE svg PUBLIC "-//W3C//DTD SVG 1.1//EN" "http://www.w3.org/Graphics/SVG/1.1/DTD/svg11.dtd">
<svg width="100%" height="100%" viewBox="0 0 128 128" version="1.1" xmlns="http://www.w3.org/2000/svg" xmlns:xlink="http://www.w3.org/1999/xlink" xml:space="preserve" xmlns:serif="http://www.serif.com/" style="fill-rule:evenodd;clip-rule:evenodd;stroke-linejoin:round;stroke-miterlimit:1.41421;">
    <path d="M128,32C128,14.339 113.661,0 96,0L32,0C14.339,0 0,14.339 0,32L0,96C0,113.661 14.339,128 32,128L96,128C113.661,128 128,113.661 128,96L128,32Z" style="fill:rgb(111,66,193);"/>
    <g transform="matrix(0.888889,0,0,0.888889,6.61395,42.3071)">
        <path d="M64.559,-17.596C74.309,-17.596 83.341,-16.533 91.653,-14.408C99.966,-12.283 106.528,-9.377 111.341,-5.689C116.153,-2.002 118.559,2.029 118.559,6.404L118.559,42.404C118.559,46.779 116.153,50.811 111.341,54.498C106.528,58.186 99.966,61.092 91.653,63.217C83.341,65.342 74.309,66.404 64.559,66.404C54.809,66.404 45.778,65.342 37.466,63.217C29.153,61.092 22.591,58.186 17.778,54.498C12.966,50.811 10.559,46.779 10.559,42.404L10.559,6.404C10.559,2.029 12.966,-2.002 17.778,-5.689C22.591,-9.377 29.153,-12.283 37.466,-14.408C45.778,-16.533 54.809,-17.596 64.559,-17.596ZM48.997,12.029C49.997,8.404 49.559,4.904 47.684,1.529L42.809,-6.721C35.809,-5.471 30.184,-3.658 25.934,-1.283C21.684,1.092 19.559,3.686 19.559,6.498C19.559,9.311 21.747,11.904 26.122,14.279C30.497,16.654 36.372,18.467 43.747,19.717C46.372,17.717 48.122,15.154 48.997,12.029ZM64.559,21.404C68.309,21.404 72.122,21.217 75.997,20.842C75.247,18.342 73.809,16.311 71.684,14.748C69.559,13.186 67.184,12.404 64.559,12.404C61.934,12.404 59.559,13.186 57.434,14.748C55.309,16.311 53.872,18.342 53.122,20.842C56.997,21.217 60.809,21.404 64.559,21.404ZM76.559,-5.596L76.559,-8.033C72.559,-8.408 68.559,-8.596 64.559,-8.596C60.559,-8.596 56.559,-8.408 52.559,-8.033L52.559,-5.596C52.559,-2.346 53.747,0.467 56.122,2.842C58.497,5.217 61.309,6.404 64.559,6.404C67.809,6.404 70.622,5.217 72.997,2.842C75.372,0.467 76.559,-2.346 76.559,-5.596ZM85.372,19.717C92.622,18.467 98.466,16.654 102.903,14.279C107.341,11.904 109.559,9.311 109.559,6.498C109.559,3.686 107.434,1.092 103.184,-1.283C98.934,-3.658 93.309,-5.471 86.309,-6.721L81.434,1.529C79.559,4.904 79.122,8.404 80.122,12.029C80.872,15.154 82.622,17.717 85.372,19.717Z" style="fill:white;fill-rule:nonzero;"/>
    </g>
</svg>
